<svg width="96" height="34" viewBox="0 0 96 34" fill="none" xmlns="http://www.w3.org/2000/svg">
<path d="M0 5.12024C3.15207 7.36212 6.30506 9.60491 9.45713 11.8468L9.42696 15.116C8.81428 14.674 8.28757 14.3096 7.88156 14.0348C7.03936 13.464 6.90585 13.4029 5.9969 12.7828C5.27266 12.2888 5.2626 12.2632 4.47527 11.7299C4.18265 11.5317 4.03634 11.4322 3.82967 11.297C3.53522 11.1053 3.4575 11.0624 3.27278 10.9299C3.10452 10.8094 2.97284 10.7035 2.8878 10.6341C2.88689 11.1427 2.88506 11.6523 2.88323 12.1627C2.8814 12.749 2.87866 13.3353 2.875 13.9197C2.8686 14.1571 2.86677 14.4768 2.8878 14.8557C2.90792 15.2311 2.94175 15.5151 2.9509 15.5963C2.96278 15.695 3.1219 16.9835 3.50962 17.556C3.57729 17.6565 3.75195 17.9104 4.0464 18.1651C4.16802 18.2701 4.30518 18.366 4.58043 18.5587C4.83647 18.7377 5.03125 18.8655 5.04954 18.8774C5.30284 19.0436 5.72531 19.3276 6.46692 19.8417V18.208C6.466 18.2071 6.29226 18.0884 6.29134 18.0884C6.14778 17.9907 6.00421 17.893 5.86156 17.7962C5.74908 17.7195 5.63661 17.6428 5.52413 17.5661C5.42811 17.5003 5.42811 17.5012 5.42811 17.5012C5.13366 17.3013 5.0916 17.2784 4.96906 17.1889C4.83007 17.0876 4.7688 17.0328 4.72217 16.988C4.66456 16.9323 4.62249 16.883 4.59963 16.8565C4.54842 16.7953 4.50819 16.7396 4.47801 16.6949C4.45972 16.6684 4.44418 16.6428 4.41583 16.5963C4.34267 16.4748 4.30701 16.4136 4.28324 16.3643C4.2174 16.2264 4.20459 16.1004 4.17899 15.8648C4.17716 15.8502 4.17167 15.7963 4.1671 15.726C4.15796 15.5927 4.15979 15.4941 4.15979 15.4603C4.15979 15.4603 4.15521 15.2868 4.14516 14.9388C4.14516 14.9343 4.1287 14.3398 4.1287 14.3398C4.1287 14.3389 4.11955 14.0256 4.11955 14.0256C4.11955 14.0247 4.11132 13.7225 4.11132 13.7216C4.11132 13.7197 4.08846 12.8979 4.08846 12.8951C5.85058 14.1517 7.61271 15.4091 9.37575 16.6657V25.5099L2.6601 21.4818C0.991253 20.355 0 18.4427 0 16.4173V5.12024Z" fill="#FB8110"/>
<path d="M24.3643 0.75672V4.17752L20.2182 7.0358L14.5395 10.8392C13.6379 11.4465 13.0975 12.4592 13.0975 13.5624V33.2434H10.2133V13.3596C10.2581 11.3789 11.2722 9.57903 12.9402 8.45398L24.3643 0.75672Z" fill="#FB8110"/>
<path d="M21.4802 7.03592L24.3643 5.05521V11.3717C24.3643 13.3972 23.3731 15.2875 21.728 16.4354L13.9086 21.814V13.4045C13.9086 12.8374 14.193 12.3087 14.6658 11.9954L20.1277 8.37922V11.5608C20.1277 12.1489 19.8452 12.7013 19.3678 13.0465L16.7928 14.9058V16.3011L20.0829 14.0282C20.9617 13.4209 21.4802 12.4301 21.4802 11.3726V7.03592Z" fill="#FB8110"/>
<path d="M58.6787 8.62213C57.2448 8.62213 55.8796 9.06137 54.6862 9.69969V8.58195H50.5685V24.8075H54.6871V24.2541V18.3092V15.2345C55.3931 13.6885 57.0501 12.4566 58.6796 12.4566C59.7175 12.4566 60.7672 12.9589 61.5765 13.7232C62.0127 12.3023 62.7635 11.0759 63.7502 10.0942C62.3328 9.20383 60.5889 8.62213 58.6787 8.62213Z" fill="#231F20"/>
<path d="M42.9256 9.34582C42.9137 9.3513 42.9027 9.35769 42.8909 9.36317C42.8506 9.38052 42.8104 9.39787 42.7766 9.4207C41.6527 8.83626 40.3734 8.50477 39.0136 8.50477C35.1136 8.50477 31.8609 11.237 31.0635 14.8916C30.9373 15.4532 30.8742 16.0377 30.8742 16.6331C30.8742 18.2713 31.3616 19.7945 32.1937 21.0666C32.9335 22.2062 33.9486 23.1459 35.1474 23.7934C36.3005 24.4125 37.6136 24.7613 39.0136 24.7613C39.0941 24.7613 39.1801 24.7613 39.2605 24.7559C40.591 24.7157 41.842 24.3605 42.9375 23.7596C42.9887 23.7313 43.0408 23.702 43.0865 23.6683C43.2475 24.1148 43.3334 24.6015 43.3334 25.1056C43.3334 25.627 43.2356 26.1311 43.0582 26.5895C42.6046 27.8671 41.5494 28.8579 40.2417 29.2414C39.8513 29.3565 39.4334 29.4195 39.0145 29.4195C36.6343 29.4195 34.7011 27.489 34.7011 25.1065C34.7011 24.9915 34.7066 24.8773 34.713 24.7632H30.887C30.8751 24.8782 30.8751 24.9924 30.8751 25.1065C30.8751 29.5967 34.5228 33.2339 39.0136 33.2339C40.4365 33.2339 41.767 32.8677 42.9366 32.2312C44.2726 31.4925 45.3854 30.3866 46.1371 29.0469C46.7855 27.8781 47.1521 26.5384 47.1521 25.1065C47.1521 23.5486 46.7105 22.0994 45.9588 20.8675C46.0045 20.8045 46.0393 20.7415 46.0795 20.673C46.1024 20.6447 46.1197 20.61 46.1371 20.5753C46.7855 19.4064 47.1521 18.0668 47.1521 16.6349C47.1521 15.0651 46.705 13.5994 45.9359 12.3621C46.0274 12.3447 46.1197 12.3338 46.2112 12.3219C46.234 12.3219 46.2514 12.3164 46.2743 12.3164C46.3255 12.3109 46.3831 12.3109 46.4352 12.3109C46.47 12.3055 46.5038 12.3055 46.5386 12.3055C47.5764 12.3055 48.6262 12.8095 49.4355 13.5766V8.96137C48.5348 8.6865 47.56 8.54313 46.5386 8.54313C45.2547 8.54404 44.0266 8.82439 42.9256 9.34582ZM39.0136 20.9442C38.7841 20.9442 38.5546 20.9269 38.3369 20.8867C36.7998 20.652 35.5324 19.5982 34.9874 18.1827C34.7981 17.7015 34.6947 17.1801 34.6947 16.6303C34.6947 16.0121 34.8264 15.4222 35.0614 14.8889C35.7326 13.3712 37.2469 12.3173 39.0136 12.3173C40.4758 12.3173 41.7725 13.0451 42.547 14.1556C42.5717 14.1885 42.5955 14.2213 42.6184 14.2551C42.6933 14.3638 42.761 14.477 42.8223 14.5912C43.1496 15.1984 43.3325 15.8916 43.3325 16.6303C43.3325 17.0887 43.2639 17.5353 43.1204 17.9481C43.1085 17.9882 43.0975 18.0284 43.0801 18.0686C43.0747 18.0859 43.0683 18.0969 43.0628 18.1143C42.6037 19.3918 41.5539 20.3826 40.2408 20.7661C40.1896 20.7808 40.1375 20.7945 40.0854 20.8082C40.0332 20.8219 39.9802 20.8346 39.9253 20.8456C39.9107 20.8492 39.897 20.852 39.8833 20.8547C39.8677 20.8575 39.8513 20.8611 39.8357 20.8629C39.822 20.8648 39.8083 20.8666 39.7937 20.8684C39.6217 20.9031 39.4434 20.9196 39.2605 20.9314C39.1801 20.9442 39.0941 20.9442 39.0136 20.9442Z" fill="#231F20"/>
<path d="M74.5615 9.47678C73.4377 8.89234 72.1584 8.55994 70.7986 8.55994C66.3023 8.55994 62.6601 12.1972 62.6601 16.6873C62.6601 21.1775 66.3023 24.8156 70.7986 24.8156C72.2215 24.8156 73.5575 24.4494 74.7216 23.8129C76.064 23.0741 77.1768 21.9683 77.9221 20.6286C78.5704 19.4598 78.9371 18.1201 78.9371 16.6873C78.9371 15.1175 78.49 13.6519 77.7209 12.4145C76.9537 11.1717 75.8582 10.1525 74.5615 9.47678ZM74.8487 18.1712C74.3896 19.4488 73.3398 20.4396 72.0267 20.8231C71.6362 20.9373 71.2238 21.0012 70.7995 21.0012C68.4138 21.0012 66.4806 19.0707 66.4806 16.6882C66.4806 14.3057 68.4138 12.3752 70.7995 12.3752C72.2626 12.3752 73.5584 13.103 74.3329 14.2135C74.4363 14.3514 74.5277 14.5002 74.6082 14.6491C74.9355 15.2563 75.1184 15.9495 75.1184 16.6882C75.1184 17.2097 75.0261 17.7137 74.8487 18.1712Z" fill="#231F20"/>
<path d="M94.3042 2.87169C93.1804 2.32652 91.9011 2.01604 90.5413 2.01604C86.1282 2.01604 82.5372 5.28616 82.4074 9.36994C82.4037 9.44665 82.4028 9.52335 82.4028 9.60098V9.80827H77.6185C78.1607 10.3452 78.6408 10.947 79.045 11.5999C79.4373 12.231 79.7583 12.9131 79.9988 13.6327H82.4028V24.6713H86.5214V13.6336H93.2938V9.80918H86.5818L86.5891 9.37085C86.6074 7.32805 88.9968 5.91261 90.5166 5.89069C91.6935 5.87334 92.6829 6.40847 93.4136 7.15728C93.8671 5.90439 94.5658 4.51269 95.5799 3.64425C95.183 3.35112 94.756 3.09177 94.3042 2.87169Z" fill="#231F20"/>
</svg>
